<svg width="28" height="24" viewBox="0 0 28 24" fill="none" xmlns="http://www.w3.org/2000/svg">
<path d="M23.3337 4.66669H21.627L21.2003 3.33335C20.9237 2.55099 20.4107 1.87402 19.7322 1.39623C19.0537 0.918444 18.2435 0.663487 17.4137 0.666686H10.587C9.74906 0.668254 8.93277 0.93293 8.25335 1.42336C7.57392 1.91379 7.06567 2.60521 6.80033 3.40002L6.37366 4.73335H4.66699C3.60613 4.73335 2.58871 5.15478 1.83857 5.90493C1.08842 6.65507 0.666992 7.67249 0.666992 8.73335V19.4C0.666992 20.4609 1.08842 21.4783 1.83857 22.2284C2.58871 22.9786 3.60613 23.4 4.66699 23.4H23.3337C24.3945 23.4 25.4119 22.9786 26.1621 22.2284C26.9122 21.4783 27.3337 20.4609 27.3337 19.4V8.73335C27.3425 8.20248 27.2456 7.67516 27.0485 7.18214C26.8515 6.68912 26.5582 6.24025 26.1859 5.86173C25.8136 5.48321 25.3696 5.18259 24.8799 4.97742C24.3903 4.77224 23.8646 4.66661 23.3337 4.66669ZM24.667 19.3334C24.667 19.687 24.5265 20.0261 24.2765 20.2762C24.0264 20.5262 23.6873 20.6667 23.3337 20.6667H4.66699C4.31337 20.6667 3.97423 20.5262 3.72418 20.2762C3.47413 20.0261 3.33366 19.687 3.33366 19.3334V8.66669C3.33366 8.31306 3.47413 7.97393 3.72418 7.72388C3.97423 7.47383 4.31337 7.33335 4.66699 7.33335H7.33366C7.62441 7.34853 7.91214 7.26812 8.1529 7.1044C8.39366 6.94068 8.57422 6.70266 8.66699 6.42669L9.38699 4.24002C9.47644 3.97519 9.64686 3.74517 9.87415 3.58248C10.1015 3.41978 10.3741 3.33263 10.6537 3.33335H17.4803C17.7598 3.33263 18.0325 3.41978 18.2598 3.58248C18.4871 3.74517 18.6575 3.97519 18.747 4.24002L19.467 6.42669C19.5526 6.68101 19.7129 6.90361 19.927 7.06537C20.141 7.22713 20.399 7.32053 20.667 7.33335H23.3337C23.6873 7.33335 24.0264 7.47383 24.2765 7.72388C24.5265 7.97393 24.667 8.31306 24.667 8.66669V19.3334ZM14.0003 7.33335C12.9455 7.33335 11.9143 7.64615 11.0373 8.23218C10.1602 8.81822 9.47663 9.65117 9.07297 10.6257C8.6693 11.6002 8.56368 12.6726 8.76947 13.7072C8.97526 14.7417 9.48321 15.692 10.2291 16.4379C10.975 17.1838 11.9253 17.6918 12.9598 17.8975C13.9944 18.1033 15.0668 17.9977 16.0413 17.594C17.0158 17.1904 17.8488 16.5068 18.4348 15.6297C19.0209 14.7527 19.3337 13.7215 19.3337 12.6667C19.3337 11.2522 18.7718 9.89564 17.7716 8.89545C16.7714 7.89526 15.4148 7.33335 14.0003 7.33335ZM14.0003 15.3334C13.4729 15.3334 12.9573 15.177 12.5188 14.8839C12.0803 14.5909 11.7385 14.1744 11.5366 13.6872C11.3348 13.1999 11.282 12.6637 11.3849 12.1464C11.4878 11.6292 11.7418 11.154 12.1147 10.7811C12.4876 10.4081 12.9628 10.1542 13.4801 10.0513C13.9974 9.94837 14.5335 10.0012 15.0208 10.203C15.5081 10.4048 15.9246 10.7466 16.2176 11.1852C16.5106 11.6237 16.667 12.1393 16.667 12.6667C16.667 13.3739 16.386 14.0522 15.8859 14.5523C15.3858 15.0524 14.7076 15.3334 14.0003 15.3334Z" fill="white"/>
</svg>
